<?xml version="1.0" encoding="UTF-8"?>
<svg width="700pt" height="700pt" version="1.1" viewBox="0 0 700 700" xmlns="http://www.w3.org/2000/svg">
 <path d="m349.98 0.046875c-154.5 0-279.98 125.47-279.98 279.98 0 154.5 125.48 279.98 279.98 279.98 154.5 0 279.98-125.48 279.98-279.98 0-154.5-125.47-279.98-279.98-279.98zm0 23.332c141.89 0 256.64 114.75 256.64 256.64 0 141.89-114.75 256.64-256.64 256.64-141.89 0-256.64-114.75-256.64-256.64 0-141.89 114.75-256.64 256.64-256.64zm87.34 163.22c-6.4062 0.125-11.512 5.3945-11.438 11.805v163.38c0.14062 6.3438 5.3242 11.41 11.668 11.41s11.523-5.0664 11.664-11.41v-163.38c0.039062-3.1602-1.207-6.1953-3.4453-8.4219-2.2422-2.2227-5.2891-3.4453-8.4492-3.3828zm35.07 0c-3.0977 0.03125-6.0586 1.293-8.2266 3.5078-2.1641 2.2148-3.3633 5.1992-3.3281 8.2969v163.38c0.14062 6.3438 5.3242 11.41 11.668 11.41s11.527-5.0664 11.668-11.41v-163.38c0.035156-3.1367-1.1953-6.1602-3.4102-8.3789-2.2148-2.2227-5.2344-3.457-8.3711-3.4258zm-245.27 0.16016c-6.2852 0.19531-11.281 5.3359-11.305 11.621v163.38c0.011718 4.0391 2.1055 7.7891 5.5469 9.9062 3.4375 2.1211 7.7266 2.3125 11.34 0.50781l163.38-81.645c3.9766-1.9688 6.4961-6.0195 6.4961-10.461 0-4.4375-2.5195-8.4883-6.4961-10.457l-163.38-81.645c-1.7305-0.85938-3.6523-1.2734-5.582-1.207zm12.055 30.488 125.55 62.777-125.55 62.867z"/>
</svg>
